<?xml version="1.0" encoding="utf-8"?>
<!-- Generator: Adobe Illustrator 27.0.1, SVG Export Plug-In . SVG Version: 6.00 Build 0)  -->
<svg version="1.1" id="Layer_1" xmlns="http://www.w3.org/2000/svg" xmlns:xlink="http://www.w3.org/1999/xlink" x="0px" y="0px"
	 viewBox="0 0 315 223" style="enable-background:new 0 0 315 223;" xml:space="preserve">
<style type="text/css">
	.st0{fill:#FFFFFF;}
</style>
<g>
	<path class="st0" d="M302.4,131.4c-1.2,2-1.9,4.2-2.8,6.3c-1.7,3.9-3.3,7.8-5,11.7c-0.3,0.7-0.5,1.5-0.5,2.3c0,3.8,0,7.6,0,11.4
		c0,1.9-0.9,2.9-2.5,2.9c-1.7,0-2.7-1-2.7-2.9c0-3.9,0-7.7,0-11.6c0-0.8-0.2-1.6-0.5-2.4c-2.5-5.7-4.9-11.4-7.4-17.1
		c-0.7-1.7-0.3-3.1,1.1-3.7c1.5-0.6,2.8,0,3.5,1.7c1.8,4.5,3.6,9,5.4,13.5c0.1,0.3,0.3,0.6,0.5,1.1c0.8-2,1.5-3.8,2.2-5.6
		c1.1-2.9,2.3-5.8,3.4-8.7c0.4-1.1,1-2.1,2.3-2.3c1.4-0.2,2.2,0.6,2.9,1.7C302.4,130.4,302.4,130.9,302.4,131.4z"/>
	<path class="st0" d="M122.4,208.1c0.1-1.4,0.9-2.5,1.4-3.7c0.6-1.2,0.6-2.2-0.1-3.3c-1.4-2.5-2.6-5.2-3.9-7.9c0.9,0,1.7,0,2.4,0
		c0.6,0,1,0.2,1.2,0.7c0.8,1.7,1.6,3.3,2.6,5.2c0.7-1.6,1.4-3,1.9-4.5c0.4-1.2,1-1.7,2.3-1.5c0.4,0.1,0.9,0,1.6,0
		c-2.2,5.1-4.3,10-6.4,14.9C124.4,208.1,123.4,208.1,122.4,208.1z"/>
	<path class="st0" d="M251.1,81.2c-1.6,1.7-2.9,3.1-4.2,4.5c-0.5,0.5-1.1,0.5-1.7,0.5c-9.1,0-18.2,0-27.3,0c-1.6,0-1.6,0-1.6,1.6
		c0,1.7,0,3.4,0,5.1c0,0.8-0.2,1.1-1,1.1c-6.4,0-12.9,0-19.3,0c-0.7,0-1-0.2-1-1c0-3.6,0-7.3,0-10.9c0-1,0.5-0.9,1.2-0.9
		c4.6,0,9.3,0,13.9,0c1,0,1.2-0.3,1.2-1.2c-0.1-4.5,0-9,0-13.6c0-0.9-0.2-1.2-1.2-1.1C196.4,66,185.3,75.5,182.5,89
		c-0.5,2.4-0.6,4.8-0.6,7.2c0,3.7,0,7.5,0,11.2c0,0.9-0.2,1.2-1.2,1.2c-3.8-0.1-7.6-0.1-11.4,0c-1,0-1.3-0.3-1.3-1.3
		c0-17.9,0-35.7,0-53.6c0-4.4,0-8.9,0-13.3c0-1-0.3-1.3-1.3-1.2c-12.9,0.8-23,9.9-25.2,22.7c-0.3,1.9-0.3,3.9-0.3,5.8
		c0,0.8,0.3,0.9,1,0.9c2.8,0,5.6,0,8.3,0c1,0,1.2,0.3,1.2,1.2c0,12.1,0,24.1,0,36.2c0,0.8-0.2,1.1-1.1,1.1c-4.4,0-8.8-0.1-13.2,0
		c-1,0-1.2-0.3-1.2-1.3c0-10.2,0-20.5,0-30.7c0-1.1-0.3-1.5-1.4-1.5c-2.3,0.1-2.3,0-2.3,2.4c0,1.9,0,3.7,0,5.6
		c0,0.7-0.2,0.9-0.9,0.9c-7.5,0-15,0-22.5,0c-0.7,0-0.9-0.3-0.9-1c0-4,0-8,0-11.9c0-1,0.5-1,1.2-1c5.6,0,11.2,0,16.8,0
		c0.9,0,1.3-0.2,1.3-1.2c0-14.1,0-28.2,0-42.3c0-0.2,0-0.5-0.1-0.9c-1.1,0.5-1.9,1.3-2.7,2c-7.6,6.7-11.4,15.1-11.6,25.2
		c0,2.4-0.1,4.9,0,7.3c0.1,1.3-0.4,1.5-1.6,1.5c-7.3-0.1-14.7,0-22-0.1c-1.1,0-1.4,0.3-1.4,1.4c0.1,6.1,0,12.1,0,18.2
		c0,1-0.3,1.3-1.2,1.2c-5.3,0-10.5,0-15.8,0c-0.7,0-1.2-0.2-1.6-0.7c-1.2-1.4-2.5-2.7-3.8-4.1c0.4-0.4,0.8-0.2,1.1-0.2
		c5,0,10-0.1,14.9,0c1.2,0,1.4-0.4,1.4-1.5c0-6,0-11.9,0-17.9c0-1.2,0.2-1.5,1.5-1.5c7.4,0.1,14.9,0,22.3,0c0.9,0,1.2-0.1,1.2-1.1
		c0-14.4,5.8-25.9,17.1-34.8c2.3-1.8,4.5-3.6,6.8-5.5c0.1-0.1,0.1-0.1,0.3-0.2c0.3,0.4,0.2,0.9,0.2,1.4c0,17.3,0,34.7,0,52
		c0,1.3,0.4,1.7,1.6,1.6c2.1-0.1,2.1,0,2.1-2.1c0.1-14.8,11.3-28.5,25.9-31.6c3.3-0.7,6.7-0.8,10-0.8c0.6,0,0.9,0.2,0.9,0.9
		c0,0.3,0,0.7,0,1c0,21.9,0,43.9,0,65.8c0,2-0.2,1.7,1.7,1.8c2.1,0,2.1,0,2.1-2.2c0-5-0.1-9.9,1.2-14.8
		c3.4-13.1,15.1-23.7,28.4-25.8c2.8-0.4,5.7-0.5,8.6-0.5c1,0,1.3,0.3,1.2,1.3c0,6.1,0,12.2,0,18.3c0,1.1,0.3,1.4,1.4,1.4
		c10.6,0,21.2,0,31.7,0C249.9,81.2,250.4,81.2,251.1,81.2z M141.3,87.8c0,4.3,0,8.7,0,13c0,0.9,0.2,1.3,1.2,1.2
		c1.1-0.1,2.2-0.1,3.2,0c0.8,0,1.1-0.2,1.1-1.1c-0.1-1.4,0-2.9,0-4.3c0-7.2,0-14.5,0-21.7c0-1-0.2-1.3-1.2-1.3
		c-0.9,0.1-1.9,0.1-2.9,0c-1.1-0.1-1.4,0.2-1.4,1.3C141.4,79.2,141.3,83.5,141.3,87.8z M120.4,77.5c1.1,0,2.2,0,3.2,0
		c0.5,0,0.9,0,1.4,0c2.6,0,2.5,0,2.6-2.6c0-0.9-0.2-1.2-1.2-1.2c-3.4,0.1-6.9,0-10.3,0c-2.8,0-2.7,0-2.7,2.7c0,0.8,0.2,1.2,1.1,1.1
		C116.4,77.4,118.4,77.5,120.4,77.5z M205.6,89c1.6,0,3.2,0,4.8,0c1.1,0,0.9-0.7,0.8-1.2c-0.1-0.6,0.5-1.5-0.8-1.5
		c-3.2,0-6.4,0-9.6,0c-1.2,0-0.9,0.8-0.9,1.5c0,0.6-0.2,1.4,0.9,1.3C202.5,88.9,204.1,89,205.6,89z"/>
	<path class="st0" d="M102.4,148.1c-1.7,2.6-3.3,5-4.9,7.4c-0.2,0.4-0.2,0.8-0.2,1.2c0,2.2,0,4.5,0,6.7c0,1.7-0.9,2.6-2.5,2.6
		c-1.6,0-2.5-0.9-2.5-2.6c0-10.9,0-21.8,0-32.7c0-1.6,1-2.5,2.6-2.5c1.5,0,2.5,1,2.5,2.5c0,5.1,0,10.1,0,15.2c0,0.4-0.1,0.8,0.2,1.4
		c0.4-0.6,0.7-1.1,1-1.6c3.4-5.3,6.7-10.7,10.1-16c1-1.5,2.4-1.9,3.7-1.1c1.3,0.8,1.5,2.3,0.5,3.8c-2,3-4,6.1-6.1,9.1
		c-0.8,1.1-0.8,2.2-0.2,3.4c2.8,5.7,5.6,11.4,8.4,17.2c0.8,1.7,0.5,3.1-0.8,3.8c-1.5,0.8-3.3,0.2-4.1-1.4c-2.4-4.9-4.7-9.9-7-14.8
		C102.9,149.1,102.7,148.7,102.4,148.1z"/>
	<path class="st0" d="M61.6,128.2c1.7,0,2.4,0.5,2.9,2.1c3.2,10.7,6.4,21.4,9.6,32.1c0.5,1.7-0.1,3.1-1.5,3.5
		c-1.7,0.5-3-0.3-3.5-2.2c-0.5-1.7-1-3.4-1.4-5.1c-0.2-0.7-0.4-0.9-1.1-0.9c-3.4,0-6.7,0-10.1,0c-0.7,0-0.9,0.3-1.1,0.9
		c-0.5,1.9-1,3.8-1.5,5.6c-0.4,1.3-1.4,1.8-2.8,1.8c-1.2-0.1-2.1-0.8-2.3-2.1c-0.1-0.5,0.1-1,0.2-1.5c3.2-10.8,6.4-21.5,9.7-32.3
		C59.2,128.7,59.9,128.2,61.6,128.2z M61.7,136.2c-0.2,0.2-0.2,0.2-0.3,0.3c-1.4,5.2-2.8,10.4-4.2,15.7c-0.2,0.8,0.2,0.8,0.8,0.8
		c2.4,0,4.7-0.1,7.1,0c1,0,1-0.4,0.8-1.1c-1-3.8-2.1-7.7-3.1-11.5C62.4,139,62.1,137.6,61.7,136.2z"/>
	<path class="st0" d="M133.2,147.1c0-5.1,0-10.3,0-15.4c0-0.9,0-1.8,0.6-2.5c0.5-0.7,1.3-1,2.2-1c5,0,10,0,14.9,0
		c1.6,0,2.6,0.9,2.7,2.3c0.1,1.5-1,2.5-2.6,2.5c-3.8,0-7.5,0-11.3,0c-1,0-1.2,0.3-1.2,1.3c0.1,3.1,0,6.2,0,9.3
		c0,0.9,0.2,1.2,1.1,1.1c3.2,0,6.3,0,9.5,0c1,0,1.8,0.4,2.3,1.4c0.4,0.9,0.3,1.7-0.3,2.5c-0.6,0.8-1.5,1-2.4,1c-2.9,0-5.8,0-8.7,0
		c-1.1,0-1.5,0.2-1.5,1.4c0.1,3,0.1,6,0,9c0,0.9,0.3,1.1,1.1,1.1c3.4,0,6.9,0,10.3,0c0.5,0,0.9,0,1.4,0.1c1.5,0.2,2.4,1.2,2.4,2.5
		c-0.1,1.3-1.1,2.3-2.6,2.3c-3,0-6.1,0-9.1,0c-1.9,0-3.7,0-5.6,0c-2.1,0-3-0.9-3.1-3c0-1.5,0-2.9,0-4.4
		C133.2,154.8,133.2,151,133.2,147.1z"/>
	<path class="st0" d="M183.9,146.1c0.2-2.5-0.4-6,0.3-9.5c0.8-4.3,3.2-7.3,7.5-8.3c4.3-1,8.4-0.5,11.4,3.2c1.1,1.3,1.7,2.7,2.1,4.3
		c0.4,1.6-0.2,2.8-1.6,3.3c-1.5,0.5-2.8-0.2-3.4-1.8c-1.3-3.6-4-5.1-7.3-4c-2.1,0.7-3.7,3-3.7,5.7c-0.1,5.5-0.1,11,0,16.5
		c0.1,4.1,3,6.5,6.7,5.9c2.4-0.4,3.6-2,4.3-4.2c0.3-1,0.9-1.8,2-2c2.2-0.4,3.6,1.3,3,3.5c-1.4,5.2-5.9,8.3-11.2,7.7
		c-6.1-0.6-9.9-4.6-10-10.7C183.8,152.8,183.9,150,183.9,146.1z"/>
	<path class="st0" d="M254.1,148.8c0-4.8,0-9.7,0-14.5c0-0.9-0.2-1.2-1.1-1.1c-1.6,0.1-3.2,0-4.9,0c-1.7,0-2.7-1-2.7-2.4
		c0-1.5,1-2.5,2.8-2.5c5.6,0,11.3,0,16.9,0c1.8,0,2.8,0.9,2.8,2.5c0,1.5-1,2.4-2.7,2.4c-1.5,0-3,0.1-4.5,0c-1.1-0.1-1.5,0.2-1.5,1.4
		c0.1,9.2,0,18.5,0,27.7c0,0.5,0,0.9,0,1.4c-0.1,1.6-1.1,2.5-2.7,2.4c-1.5,0-2.4-1-2.4-2.6C254.1,158.6,254.1,153.7,254.1,148.8
		C254.1,148.8,254.1,148.8,254.1,148.8z"/>
	<path class="st0" d="M13.1,147c0-5.2,0-10.4,0-15.7c0-2.2,0.8-3.2,2.6-3.2c1.7,0,2.6,1.1,2.6,3.2c0,9.3,0,18.6,0,27.9
		c0,2.2-0.2,1.8,1.9,1.8c3.3,0,6.6,0,10,0c1.9,0,3,0.9,3,2.4c0,1.3-0.9,2.5-2.3,2.5c-5.1,0-10.3,0-15.4,0c-1.5,0-2.3-1-2.3-2.7
		C13.1,157.9,13.1,152.5,13.1,147z"/>
	<path class="st0" d="M229.5,147.1c0,5.5,0,10.9,0,16.4c0,1.2-0.5,2-1.6,2.4c-1.1,0.4-2.3,0-3-0.9c-0.4-0.5-0.5-1.1-0.5-1.6
		c0-10.9,0-21.7,0-32.6c0-1.7,1-2.6,2.6-2.6c1.5,0,2.4,1,2.4,2.7C229.5,136.3,229.5,141.7,229.5,147.1z"/>
	<path class="st0" d="M144.3,192.6c-0.4,3.3-0.7,6.2-1.1,9.1c-0.1,0.6,0.1,1.5-0.5,1.6c-0.8,0.2-1.7,0.1-2.6,0
		c-0.5,0-0.3-0.5-0.3-0.8c0.6-4.7,1.2-9.4,1.7-14c0-0.4,0.2-0.6,0.6-0.6c0.1,0,0.2,0,0.4,0c3.1-0.2,3.1-0.2,4,2.8
		c0.6,2,1.3,4.1,2.1,6.4c0.9-2.9,1.8-5.5,2.5-8.1c0.2-0.8,0.5-1.1,1.4-1.1c2.8,0,2.8,0,3.2,2.8c0.5,4,1,8,1.5,11.9
		c0.1,0.7-0.1,0.9-0.8,0.9c-2.7-0.1-2.3,0.3-2.6-2.1c-0.3-2.7-0.7-5.5-1.1-8.4c-0.6,0.8-0.6,1.5-0.9,2.1c-0.8,2.4-1.5,4.7-2.2,7.1
		c-0.2,0.6-0.2,1.3-1.1,1.3c-1,0-1-0.7-1.2-1.3c-0.9-2.8-1.8-5.7-2.7-8.5C144.7,193.4,144.6,193.2,144.3,192.6z"/>
	<path class="st0" d="M111.4,202.1c-0.4,0.4,0.1,1.1-0.5,1.2c-0.8,0.2-1.7,0.2-2.5,0c-0.3-0.1-0.2-0.5-0.2-0.8c0-4.7,0-9.4,0-14.2
		c0-0.7,0.2-1,0.9-0.9c0.4,0,0.7,0,1.1,0c0.8-0.1,1,0.3,1,1c0,1.9,0,3.8,0,5.9c1.3-1,2.6-1.7,4.1-1.3c1.1,0.3,1.9,1,2.5,1.9
		c1.6,2.2,1.3,5.6-0.7,7.5C115.6,204.1,113.8,204,111.4,202.1z M111.4,198.4c0,1.4,0.9,2.5,2.2,2.5c1.1,0,2.1-1.1,2.1-2.3
		c0-1.3-1-2.4-2.2-2.4C112.3,196.1,111.4,197,111.4,198.4z"/>
	<path class="st0" d="M205.4,202c-3.2,3.3-6.6,1-7.3-2c-0.8-3.2,0.9-6.3,3.7-6.9c1.2-0.2,1.6-0.1,3.5,1.1c0.4-0.2-0.1-1,0.6-1
		c0.8,0,1.7,0,2.5,0.1c0.3,0,0.2,0.5,0.2,0.8c0,2.8,0,5.6,0,8.4c0,0.7-0.2,1-0.9,1c-0.3,0-0.6,0-0.9,0
		C205.7,203.6,205.2,203.3,205.4,202z M205.3,198.4c0-1.3-1-2.3-2.1-2.3c-1.2,0-2.1,1.1-2.1,2.6c0,1.3,0.9,2.2,2,2.2
		C204.4,200.9,205.3,199.8,205.3,198.4z"/>
	<path class="st0" d="M188.3,201c-1.5,2.4-4.1,3.3-6.7,2.4c-2.3-0.8-3.6-3-3.3-5.6c0.3-2.6,2-4.4,4.6-4.7c3-0.4,5.9,2.3,5.8,5.3
		c0,0.6-0.3,0.8-0.8,0.8c-1.8,0-3.6,0-5.5,0c-1.1,0-1.1,0.4-0.7,1.2c0.6,1,2,1.5,2.9,0.7c1.1-1,2-0.6,3-0.2
		C187.8,200.7,188,200.8,188.3,201z M183.3,197.1c0.2,0,0.4,0,0.6,0c0.5-0.1,1.3,0.4,1.3-0.4c0.1-0.7-0.5-1.3-1.2-1.5
		c-0.6-0.1-1.2-0.1-1.7,0.2c-0.5,0.3-1,0.7-0.9,1.3c0.1,0.7,0.8,0.2,1.3,0.3C182.9,197.1,183.1,197.1,183.3,197.1z"/>
	<path class="st0" d="M169.5,194.1c0.2,0,0.3,0,0.3,0c1.4-0.9,2.8-1.6,4.4-0.7c1.7,0.9,1.9,2.6,1.9,4.3c0,1.6,0,3.2,0,4.7
		c0,0.8-0.2,1.2-1,1.1c-0.2,0-0.4,0-0.6,0c-1.2,0.2-1.6-0.2-1.5-1.5c0.1-1.4,0-2.7,0-4.1c0-1.3-0.7-2.2-1.7-2.2
		c-0.9,0-1.8,0.9-1.8,2.2c-0.1,1.5-0.1,3.1,0,4.6c0,0.8-0.2,1.1-1,1.1c-2.5,0-2,0.1-2-2c0-2.4,0-4.8,0-7.2c0-0.9,0.2-1.2,1.1-1.1
		c0.4,0.1,0.8,0.1,1.1,0C169.3,193,169.5,193.4,169.5,194.1z"/>
	<path class="st0" d="M224.6,198.7c-3.3,0-6.6,0-10,0c-0.6,0-1.3,0-1.3-0.9c0-0.9,0.5-1.1,1.3-1.1c6.6,0,13.3,0,19.9,0
		c0.8,0,1.3,0.2,1.3,1.1c0,0.9-0.7,0.9-1.3,0.9C231.2,198.7,227.9,198.7,224.6,198.7z"/>
	<path class="st0" d="M91.8,198.7c-3.2,0-6.4,0-9.6,0c-0.7,0-1.4,0.1-1.4-0.9c0-1.1,0.7-1,1.4-1c6.3,0,12.7,0,19,0
		c0.6,0,1.2-0.1,1.4,0.7c0.2,1-0.4,1.3-1.3,1.3C98.2,198.7,95,198.7,91.8,198.7C91.8,198.7,91.8,198.7,91.8,198.7z"/>
	<path class="st0" d="M193.7,194.4c0.9-0.7,1.5-1.7,2.4-1.2c0.7,0.4,0.2,1.5,0.3,2.3c0.1,0.5-0.1,0.8-0.7,0.8
		c-1.2,0-1.8,0.8-1.9,1.9c-0.1,1.4-0.1,2.7-0.1,4.1c0,0.7-0.2,1.1-1,1c-0.3,0-0.7,0-1,0c-0.9,0.1-1.1-0.3-1.1-1.1
		c0.1-2.7,0-5.5,0-8.2c0-0.8,0.2-1.1,1-1c0.2,0,0.5,0,0.7,0C193.1,193.1,193.9,193,193.7,194.4z"/>
	<path class="st0" d="M163,198.3c0,1.3,0,2.6,0,4c0,0.9-0.2,1.3-1.1,1.2c-2.3-0.1-1.9,0.1-1.9-1.9c0-2.4,0-4.8,0-7.2
		c0-0.9,0.2-1.3,1.2-1.2c0.3,0,0.7,0,1,0c0.7-0.1,0.9,0.2,0.9,0.9C162.9,195.5,163,196.9,163,198.3z"/>
	<path class="st0" d="M161.5,191.3c-1,0-1.9-0.8-1.9-1.9c0-1.1,0.9-2,2-1.9c1,0,1.8,0.9,1.8,1.9
		C163.3,190.5,162.5,191.3,161.5,191.3z"/>
</g>
</svg>
